<?xml version="1.0" encoding="UTF-8"?>
<svg id="Lag_2" data-name="Lag 2" xmlns="http://www.w3.org/2000/svg" viewBox="0 0 1400 800">
  <defs>
    <style>
      .cls-1, .cls-2 {
        stroke-linejoin: round;
      }

      .cls-1, .cls-2, .cls-3, .cls-4 {
        fill: none;
        stroke-linecap: round;
        stroke-width: 8.62px;
      }

      .cls-1, .cls-4 {
        stroke: #000;
      }

      .cls-2, .cls-3 {
        stroke: #1b1b00;
      }

      .cls-3, .cls-4 {
        stroke-miterlimit: 10;
      }
    </style>
  </defs>
  <g id="A">
    <path class="cls-3" d="M72.26,358.82l5.98,5.15c1.97,1.7,3.12,4.18,3.02,6.78-1.28,35.33-34.04,98.15-35.99,97.58"/>
    <path class="cls-3" d="M40,423.04l5.04,5.5c1.1,1.2,2.78,1.72,4.37,1.35,24.59-5.74,48.1-12.97,70.94-21.12"/>
    <path class="cls-3" d="M100.49,390.46c17.48,14.6,32.94,30.29,43.12,50.26"/>
  </g>
  <g id="E">
    <path class="cls-3" d="M546.52,374.26c22.81-4.18,43.1-8.46,63.24-10.44,2.3-.23,4.51-1.01,6.42-2.32l9.93-6.83"/>
    <path class="cls-3" d="M554.54,414.59c22.9-6.2,39.28-9.78,52.02-9.78,2.84,0,5.52-1.32,7.33-3.51l9.56-11.59"/>
    <path class="cls-3" d="M553.35,461.67c20.49-11.35,38.4-15.6,54.25-14.87,3.4.16,6.75-.79,9.47-2.82l7.44-5.58"/>
    <line class="cls-3" x1="551.7" y1="375.49" x2="553.35" y2="461.67"/>
  </g>
  <g id="I">
    <path class="cls-2" d="M289.79,378.64l7.07,3.54c21.9-9.26,39.07-14.72,49.33-14.65"/>
    <path class="cls-2" d="M293.16,460.3l9.26,3.7c23.88-8.15,45.56-13.74,62.64-13.98"/>
    <path class="cls-2" d="M320.45,374.85c9.71,5.67,7.17,42.32,14.8,78.03"/>
  </g>
  <g id="M">
    <path class="cls-1" d="M395.4,390.78l15.8,6.77c36.54-13.18,68.1-23.58,87.8-27.34"/>
    <path class="cls-1" d="M441.56,358.17c2.95.16,5.96.98,9.03,2.51l10.54,84.04c.35,7.65-7.08,3.01-15.55-3.26"/>
    <path class="cls-4" d="M513.56,444.72c-6.17-26.61-17.04-49.94-35.54-67.97"/>
    <path class="cls-4" d="M407.95,469.55c7.87-24.96,12.04-49.92,12.51-74.87"/>
  </g>
  <g id="N">
    <path class="cls-1" d="M160.22,469.72l81.78-105.11c9.2,27.51,11.42,54.44,3.26,80.52l-16.31-13.55"/>
    <polyline class="cls-1" points="171.26 351.81 186.82 354.57 190.34 431.01"/>
  </g>
  <g id="E-2" data-name="E">
    <path class="cls-3" d="M774.38,367.78c22.81-4.18,43.1-8.46,63.24-10.44,2.3-.23,4.51-1.01,6.42-2.32l9.93-6.83"/>
    <path class="cls-3" d="M782.4,408.11c22.9-6.2,39.28-9.78,52.02-9.78,2.84,0,5.52-1.32,7.33-3.51l9.56-11.59"/>
    <path class="cls-3" d="M781.22,455.19c20.49-11.35,38.4-15.6,54.25-14.87,3.4.16,6.75-.79,9.47-2.82l7.44-5.58"/>
    <line class="cls-3" x1="779.56" y1="369" x2="781.22" y2="455.19"/>
  </g>
  <g id="N-2" data-name="N">
    <path class="cls-1" d="M902.08,468.09l81.78-105.11c9.2,27.51,11.42,54.44,3.26,80.52l-16.31-13.55"/>
    <polyline class="cls-1" points="913.11 350.18 928.67 352.94 932.19 429.38"/>
  </g>
  <g id="A-2" data-name="A">
    <path class="cls-3" d="M1178.36,358.91l5.98,5.15c1.97,1.7,3.12,4.18,3.02,6.78-1.28,35.33-34.04,98.15-35.99,97.58"/>
    <path class="cls-3" d="M1146.1,423.13l5.04,5.5c1.1,1.2,2.78,1.72,4.37,1.35,24.59-5.74,48.1-12.97,70.94-21.12"/>
    <path class="cls-3" d="M1206.59,390.55c17.48,14.6,32.94,30.29,43.12,50.26"/>
  </g>
  <g id="I-2" data-name="I">
    <path class="cls-2" d="M1283.73,367.73l7.07,3.54c21.9-9.26,39.07-14.72,49.33-14.65"/>
    <path class="cls-2" d="M1287.1,449.39l9.26,3.7c23.88-8.15,45.56-13.74,62.64-13.98"/>
    <path class="cls-2" d="M1314.4,363.94c9.71,5.67,7.17,42.32,14.8,78.03"/>
  </g>
  <g id="P">
    <path class="cls-2" d="M1029.37,372.91l7.5,6.16c24.24-9.78,57.15-18.25,94.33-26.07,1.53-.32,2.81,1.26,2.12,2.66-6.23,12.55-28.38,31.37-62.16,54.75"/>
    <path class="cls-2" d="M1058.58,374.33c14.73,12.86,21.17,54.12-6.43,96.9"/>
  </g>
  <g id="S">
    <path class="cls-2" d="M658.79,359.41l10.38,4.05c15.58-7.2,38.9-13.25,64.26-18.99"/>
    <path class="cls-2" d="M648.92,395.36l9.87,2.03,80.76-23.29c.71,32.4-24.96,65.47-68.36,98.99"/>
    <line class="cls-2" x1="671.01" y1="362.63" x2="665.88" y2="395.34"/>
  </g>
</svg>