<?xml version="1.0" encoding="UTF-8"?>
<svg id="Lag_2" data-name="Lag 2" xmlns="http://www.w3.org/2000/svg" viewBox="0 0 800 800">
  <defs>
    <style>
      .cls-1 {
        stroke-linejoin: round;
      }

      .cls-1, .cls-2 {
        fill: none;
        stroke: #000;
        stroke-linecap: round;
        stroke-width: 5px;
      }

      .cls-2 {
        stroke-miterlimit: 10;
      }
    </style>
  </defs>
  <g id="A">
    <path class="cls-2" d="M41.36,371.43l3.42,2.94c1.13.97,1.78,2.39,1.73,3.88-.73,20.2-19.46,56.12-20.58,55.79"/>
    <path class="cls-2" d="M22.92,408.15l2.88,3.14c.63.69,1.59.98,2.5.77,14.06-3.28,27.5-7.42,40.56-12.08"/>
    <path class="cls-2" d="M57.5,389.53c9.99,8.35,18.83,17.32,24.65,28.74"/>
  </g>
  <g id="E">
    <path class="cls-2" d="M312.53,380.26c13.04-2.39,24.64-4.84,36.16-5.97,1.32-.13,2.58-.58,3.67-1.33l5.68-3.91"/>
    <path class="cls-2" d="M317.12,403.32c13.09-3.54,22.46-5.59,29.74-5.59,1.62,0,3.16-.75,4.19-2.01l5.47-6.63"/>
    <path class="cls-2" d="M316.44,430.24c11.72-6.49,21.96-8.92,31.02-8.5,1.94.09,3.86-.45,5.41-1.61l4.25-3.19"/>
    <line class="cls-2" x1="315.49" y1="380.97" x2="316.44" y2="430.24"/>
  </g>
  <g id="I">
    <path class="cls-1" d="M165.74,382.77l4.04,2.02c12.52-5.29,22.34-8.42,28.21-8.38"/>
    <path class="cls-1" d="M167.67,429.46l5.29,2.12c13.65-4.66,26.05-7.86,35.82-7.99"/>
    <path class="cls-1" d="M183.27,380.6c5.55,3.24,4.1,24.2,8.46,44.62"/>
  </g>
  <g id="M">
    <path class="cls-1" d="M226.12,389.71l9.03,3.87c20.89-7.54,38.94-13.48,50.2-15.63"/>
    <path class="cls-1" d="M252.52,371.06c1.69.09,3.41.56,5.16,1.44l6.03,48.05c.2,4.37-4.05,1.72-8.89-1.86"/>
    <path class="cls-2" d="M293.68,420.55c-3.53-15.21-9.74-28.55-20.32-38.86"/>
    <path class="cls-2" d="M233.3,434.75c4.5-14.27,6.88-28.54,7.15-42.81"/>
  </g>
  <g id="N">
    <path class="cls-1" d="M91.65,434.84l46.76-60.1c5.26,15.73,6.53,31.13,1.86,46.04l-9.33-7.75"/>
    <polyline class="cls-1" points="97.97 367.43 106.86 369 108.88 412.71"/>
  </g>
  <g id="E-2">
    <path class="cls-2" d="M442.81,376.56c13.04-2.39,24.64-4.84,36.16-5.97,1.32-.13,2.58-.58,3.67-1.33l5.68-3.91"/>
    <path class="cls-2" d="M447.4,399.62c13.09-3.54,22.46-5.59,29.74-5.59,1.62,0,3.16-.75,4.19-2.01l5.47-6.63"/>
    <path class="cls-2" d="M446.73,426.54c11.72-6.49,21.96-8.92,31.02-8.5,1.94.09,3.86-.45,5.41-1.61l4.25-3.19"/>
    <line class="cls-2" x1="445.78" y1="377.25" x2="446.73" y2="426.54"/>
  </g>
  <g id="N-2">
    <path class="cls-1" d="M515.83,433.91l46.76-60.1c5.26,15.73,6.53,31.13,1.86,46.04l-9.33-7.75"/>
    <polyline class="cls-1" points="522.14 366.49 531.03 368.07 533.05 411.78"/>
  </g>
  <g id="A-2">
    <path class="cls-2" d="M673.8,371.49l3.42,2.94c1.13.97,1.78,2.39,1.73,3.88-.73,20.2-19.46,56.12-20.58,55.79"/>
    <path class="cls-2" d="M655.35,408.2l2.88,3.14c.63.69,1.59.98,2.5.77,14.06-3.28,27.5-7.42,40.56-12.08"/>
    <path class="cls-2" d="M689.94,389.58c9.99,8.35,18.83,17.32,24.65,28.74"/>
  </g>
  <g id="I-2">
    <path class="cls-1" d="M734.05,376.53l4.04,2.02c12.52-5.29,22.34-8.42,28.21-8.38"/>
    <path class="cls-1" d="M735.97,423.22l5.29,2.12c13.65-4.66,26.05-7.86,35.82-7.99"/>
    <path class="cls-1" d="M751.58,374.36c5.55,3.24,4.1,24.2,8.46,44.62"/>
  </g>
  <g id="P">
    <path class="cls-1" d="M588.61,379.49l4.29,3.52c13.86-5.59,32.68-10.43,53.94-14.91.87-.18,1.61.72,1.21,1.52-3.56,7.18-16.23,17.94-35.54,31.3"/>
    <path class="cls-1" d="M605.31,380.3c8.42,7.35,12.1,30.94-3.68,55.4"/>
  </g>
  <g id="S">
    <path class="cls-1" d="M376.72,371.77l5.94,2.32c8.91-4.12,22.24-7.58,36.74-10.86"/>
    <path class="cls-1" d="M371.08,392.33l5.64,1.16,46.18-13.32c.41,18.53-14.27,37.43-39.09,56.6"/>
    <line class="cls-1" x1="383.71" y1="373.61" x2="380.78" y2="392.32"/>
  </g>
</svg>