<?xml version="1.0" encoding="UTF-8"?>
<svg id="Lag_1" data-name="Lag 1" xmlns="http://www.w3.org/2000/svg" viewBox="0 0 800 800">
  <defs>
    <style>
      .cls-1, .cls-2 {
        stroke-linejoin: round;
      }

      .cls-1, .cls-2, .cls-3, .cls-4 {
        fill: none;
        stroke-linecap: round;
        stroke-width: 8.62px;
      }

      .cls-1, .cls-4 {
        stroke: #000;
      }

      .cls-2, .cls-3 {
        stroke: #1b1b00;
      }

      .cls-3, .cls-4 {
        stroke-miterlimit: 10;
      }
    </style>
  </defs>
  <g id="A">
    <path class="cls-3" d="M140.68,272.66l5.98,5.15c1.97,1.7,3.12,4.18,3.02,6.78-1.28,35.33-34.04,98.15-35.99,97.58"/>
    <path class="cls-3" d="M108.42,336.88l5.04,5.5c1.1,1.2,2.78,1.72,4.37,1.35,24.59-5.74,48.1-12.97,70.94-21.12"/>
    <path class="cls-3" d="M168.91,304.3c17.48,14.6,32.94,30.29,43.12,50.26"/>
  </g>
  <g id="E">
    <path class="cls-3" d="M614.94,271.1c22.81-4.18,43.1-8.46,63.24-10.44,2.3-.23,4.51-1.01,6.42-2.32l9.93-6.83"/>
    <path class="cls-3" d="M622.96,311.43c22.9-6.2,39.28-9.78,52.02-9.78,2.84,0,5.52-1.32,7.33-3.51l9.56-11.59"/>
    <path class="cls-3" d="M621.77,358.51c20.49-11.35,38.4-15.6,54.25-14.87,3.4.16,6.75-.79,9.47-2.82l7.44-5.58"/>
    <line class="cls-3" x1="620.12" y1="272.33" x2="621.77" y2="358.51"/>
  </g>
  <g id="I">
    <path class="cls-2" d="M358.21,285.48l7.07,3.54c21.9-9.26,39.07-14.72,49.33-14.65"/>
    <path class="cls-2" d="M361.58,367.14l9.26,3.7c23.88-8.15,45.56-13.74,62.64-13.98"/>
    <path class="cls-2" d="M388.88,281.69c9.71,5.67,7.17,42.32,14.8,78.03"/>
  </g>
  <g id="M">
    <path class="cls-1" d="M463.83,297.62l15.8,6.77c36.54-13.18,68.1-23.58,87.8-27.34"/>
    <path class="cls-1" d="M509.98,265.01c2.95.16,5.96.98,9.03,2.51l10.54,84.04c.35,7.65-7.08,3.01-15.55-3.26"/>
    <path class="cls-4" d="M581.98,351.56c-6.17-26.61-17.04-49.94-35.54-67.97"/>
    <path class="cls-4" d="M476.37,376.39c7.87-24.96,12.04-49.92,12.51-74.87"/>
  </g>
  <g id="N">
    <path class="cls-1" d="M228.65,381.56l81.78-105.11c9.2,27.51,11.42,54.44,3.26,80.52l-16.31-13.55"/>
    <polyline class="cls-1" points="239.68 263.65 255.24 266.41 258.76 342.85"/>
  </g>
  <g id="E-2" data-name="E">
    <path class="cls-3" d="M164.92,429.18c22.81-4.18,43.1-8.46,63.24-10.44,2.3-.23,4.51-1.01,6.42-2.32l9.93-6.83"/>
    <path class="cls-3" d="M172.94,469.51c22.9-6.2,39.28-9.78,52.02-9.78,2.84,0,5.52-1.32,7.33-3.51l9.56-11.59"/>
    <path class="cls-3" d="M171.76,516.59c20.49-11.35,38.4-15.6,54.25-14.87,3.4.16,6.75-.79,9.47-2.82l7.44-5.58"/>
    <line class="cls-3" x1="170.11" y1="430.41" x2="171.76" y2="516.59"/>
  </g>
  <g id="N-2" data-name="N">
    <path class="cls-1" d="M292.62,527.49l81.78-105.11c9.2,27.51,11.42,54.44,3.26,80.52l-16.31-13.55"/>
    <polyline class="cls-1" points="303.66 409.59 319.21 412.35 322.73 488.78"/>
  </g>
  <g id="A-2" data-name="A">
    <path class="cls-3" d="M568.9,402.32l5.98,5.15c1.97,1.7,3.12,4.18,3.02,6.78-1.28,35.33-34.04,98.15-35.99,97.58"/>
    <path class="cls-3" d="M536.64,466.53l5.04,5.5c1.1,1.2,2.78,1.72,4.37,1.35,24.59-5.74,48.1-12.97,70.94-21.12"/>
    <path class="cls-3" d="M597.13,433.96c17.48,14.6,32.94,30.29,43.12,50.26"/>
  </g>
  <g id="I-2" data-name="I">
    <path class="cls-2" d="M685.28,415.13l7.07,3.54c21.9-9.26,39.07-14.72,49.33-14.65"/>
    <path class="cls-2" d="M688.64,496.8l9.26,3.7c23.88-8.15,45.56-13.74,62.64-13.98"/>
    <path class="cls-2" d="M715.94,411.34c9.71,5.67,7.17,42.32,14.8,78.03"/>
  </g>
  <g id="P">
    <path class="cls-2" d="M419.91,434.31l7.5,6.16c24.24-9.78,57.15-18.25,94.33-26.07,1.53-.32,2.81,1.26,2.12,2.66-6.23,12.55-28.38,31.37-62.16,54.75"/>
    <path class="cls-2" d="M449.12,435.73c14.73,12.86,21.17,54.12-6.43,96.9"/>
  </g>
  <g id="S">
    <path class="cls-2" d="M49.33,434.81l10.38,4.05c15.58-7.2,38.9-13.25,64.26-18.99"/>
    <path class="cls-2" d="M39.46,470.77l9.87,2.03,80.76-23.29c.71,32.4-24.96,65.47-68.36,98.99"/>
    <line class="cls-2" x1="61.56" y1="438.03" x2="56.42" y2="470.75"/>
  </g>
</svg>