<?xml version="1.0" encoding="UTF-8"?>
<svg xmlns="http://www.w3.org/2000/svg" width="1920" height="400" viewBox="0 0 1920 400">
  <g transform="translate(80, 80) scale(27.5, 3.75)">
    
  <defs>
    <style>
      .cls-1 {
        fill: #fff;
      }
    </style>
  </defs>
  <path class="cls-1" d="M33.79,284.51c-.24,0-.46.03-.61.08-.56.11-1.18.42-1.53.73.05-.07.1-.14.15-.22.56-.37,1.23-.58,1.99-.59ZM34.23,284.51c-.15-.01-.3,0-.44,0,.14,0,.29,0,.44,0ZM193.41,241.07c-14.56-33.95-39.35-62.78-65.84-87.97-4.13-4-10.97-3.53-14.51,1.01-3.35,4.26-2.62,10.44,1.64,13.8,8.84,6.97,17.46,14.17,25.65,21.78-20.34,6.5-40.83,12.42-61.5,17.63.77-1.93,1.52-3.86,2.27-5.8,8.63-23.24,16.78-47.78,18.66-72.91.41-6.29-1.89-12.65-6.16-17.28-.99-1.18-9.25-8.77-10.54-10.11-4.04-3.87-10.59-3.51-14.19.77-3.48,4.12-2.96,10.28,1.16,13.77l9.39,7.94c1.31.95,2.25,2.44,2.31,4.07-.04,7.57-.88,15.04-2.09,22.55-3.49,20.52-9.28,40.84-16.18,60.75-3.65.86-7.31,1.69-10.98,2.5-3.1.67-8.81,1.9-12.53,2.67.16.19.3.36.42.51l.17.21-.05-.05-.12-.09c-.4-.28-.93-.42-1.43-.37.31-.07.65-.14,1.01-.21-1.73-2.13-5.63-6.91-7.02-8.62-3.55-4.38-10.2-4.81-14.27-.91-3.91,3.71-4.07,9.88-.36,13.79,1.11,1.16,6.36,6.72,7.37,7.77,4.17,4.99,10.51,7.47,16.93,5.81,1.14-.33,4.67-1.35,5.85-1.69,2.7-.78,5.4-1.58,8.1-2.4-1.64,4.3-3.31,8.58-5.01,12.83-5.38,13.1-10.94,26.21-17.61,38.69-.66,1.24-1.45,2.55-2.15,3.59.56-.37,1.23-.58,1.99-.59-.24,0-.46.03-.61.08-.56.11-1.18.42-1.53.73.05-.07.1-.14.15-.22-2.48,1.61-2.76,5.99.98,7.26,1.49.49,3.23-.07,4.27-1.03,3.13-3.21,5.09-7.24,7.38-10.98,10.03-17.83,18.95-36.18,26.99-54.96,25.99-8.3,51.65-17.77,76.85-28.07,1.9,1.9,3.78,3.82,5.62,5.78,12.01,12.71,22.65,26.71,31.12,42.08,1.15,2.1,3.73,3.01,5.96,2.05,2.38-1.03,3.47-3.79,2.44-6.16ZM40.39,216.75c-.12-.15-.26-.32-.42-.51-.36.07-.7.14-1.01.21.5-.05,1.03.09,1.43.37l.12.09.05.05-.17-.21ZM1738.15,241.07c-14.56-33.95-39.35-62.78-65.84-87.97-4.14-4-10.97-3.53-14.51,1.01-3.36,4.26-2.63,10.44,1.63,13.8,8.85,6.97,17.46,14.17,25.65,21.78-20.34,6.49-40.82,12.42-61.49,17.63.77-1.93,1.52-3.86,2.27-5.8,8.63-23.24,16.78-47.78,18.66-72.91.41-6.29-1.89-12.65-6.16-17.28-.99-1.18-9.26-8.77-10.54-10.11-4.04-3.87-10.59-3.51-14.19.77-3.48,4.12-2.97,10.28,1.15,13.77l9.4,7.94c1.3.95,2.25,2.44,2.31,4.07-.04,7.57-.88,15.04-2.09,22.55-3.5,20.52-9.29,40.84-16.2,60.75-3.65.86-7.31,1.69-10.97,2.5-3.1.67-8.8,1.89-12.52,2.67.16.19.3.36.42.51l.17.21-.05-.05-.13-.09c-.4-.28-.93-.42-1.44-.37.32-.07.67-.14,1.03-.21-1.73-2.13-5.64-6.91-7.03-8.62-3.54-4.38-10.19-4.81-14.27-.91-3.9,3.71-4.06,9.88-.36,13.79,1.11,1.16,6.36,6.72,7.37,7.77,4.17,4.99,10.52,7.47,16.93,5.81,1.14-.33,4.68-1.35,5.86-1.69,2.7-.78,5.4-1.58,8.09-2.39-1.63,4.3-3.31,8.57-5.01,12.82-5.38,13.1-10.94,26.21-17.6,38.69-.66,1.24-1.46,2.55-2.15,3.59-2.48,1.61-2.76,5.99.98,7.26,1.49.49,3.22-.07,4.26-1.03,3.13-3.21,5.09-7.24,7.39-10.98,10.03-17.83,18.95-36.18,26.99-54.96,26-8.3,51.65-17.77,76.85-28.07,1.9,1.9,3.78,3.83,5.62,5.78,12,12.71,22.65,26.71,31.12,42.08,1.14,2.1,3.72,3.01,5.96,2.05,2.37-1.03,3.47-3.79,2.44-6.16ZM1585.13,216.75c-.12-.15-.26-.32-.42-.51-.36.07-.71.14-1.03.21.51-.05,1.04.09,1.44.37l.13.09.05.05-.17-.21ZM772.69,136.56c21.84-4.15,43.62-8.19,65.71-9.98,4.91-.41,9.73-2.04,13.84-4.79l3.52-2.41,13.62-9.37c3.45-2.37,4.25-7.17,1.74-10.52-2.44-3.27-7.08-3.95-10.35-1.51l-13.26,9.87c-1.5,1.08-3.92,3.1-5.63,3.83-1.78.89-3.94,1.31-5.93,1.52-30.22,3.76-59.61,11.6-89.25,18.12-1.59-.98-3.49-1.5-5.49-1.39-5.35.27-9.48,4.83-9.21,10.19l7.45,148.69c.13,2.6,2.27,4.71,4.92,4.74,1.62.02,3.08-.73,4-1.92,8.62-4.62,17.48-8.73,26.53-12.16,14.43-5.48,29.38-9.07,44.69-9.93,5.02-.24,10.24-.16,15.26.17,6.7.31,13.69-1.65,19.28-5.79l12.84-9.55c3.39-2.5,3.99-7.38,1.31-10.63-2.59-3.16-7.25-3.62-10.41-1.03l-12.25,10.03c-2.83,2.34-6.56,3.64-10.45,3.67-11.05-.26-22.19.88-32.95,3.23-18.62,4.16-36.18,11.67-52.68,20.97l.91-68.81c14.49-3.79,28.96-7.4,43.61-10.26,12.64-2.44,25.45-4.39,38.29-4.26,6.68.18,13.26-2.92,17.54-8.01.98-1.19,5.38-6.52,6.45-7.84l10.12-12.35c2.65-3.22,2.1-8.04-1.22-10.57-3.25-2.48-7.89-1.86-10.38,1.38-3.21,4.2-11.42,14.94-14.54,19.02-.28.36-.84,1.09-1.12,1.44-1.66,2.14-4.16,3.48-6.89,3.49-8.23.17-16.77,1.2-24.79,2.62-19.29,3.42-38.17,8.75-56.92,14.27l.8-60.23c7.12-1.27,14.21-2.61,21.29-3.94ZM1095.97,136.56c21.83-4.15,43.62-8.19,65.71-9.98,4.91-.41,9.73-2.04,13.84-4.79l3.52-2.41,13.62-9.37c3.45-2.37,4.25-7.17,1.74-10.52-2.44-3.27-7.08-3.95-10.36-1.51l-13.25,9.87c-1.5,1.08-3.92,3.1-5.63,3.83-1.78.89-3.95,1.31-5.93,1.52-30.23,3.76-59.62,11.6-89.25,18.12-1.59-.98-3.49-1.5-5.49-1.39-5.36.27-9.48,4.83-9.21,10.19l7.44,148.69c.14,2.6,2.28,4.71,4.93,4.74,1.63.02,3.08-.74,4-1.93,8.62-4.62,17.48-8.72,26.53-12.15,14.42-5.48,29.38-9.07,44.69-9.93,5.02-.24,10.23-.16,15.26.17,6.7.31,13.69-1.65,19.28-5.79l12.84-9.55c3.38-2.5,3.99-7.38,1.31-10.63-2.59-3.16-7.25-3.62-10.41-1.03l-12.25,10.03c-2.84,2.34-6.56,3.64-10.46,3.67-11.04-.26-22.18.88-32.94,3.23-18.63,4.16-36.18,11.67-52.68,20.97l.91-68.81c14.49-3.79,28.96-7.4,43.61-10.26,12.64-2.44,25.45-4.39,38.28-4.26,6.69.18,13.27-2.92,17.55-8.01.98-1.19,5.37-6.52,6.44-7.84l10.13-12.35c2.65-3.22,2.09-8.04-1.23-10.57-3.24-2.48-7.88-1.86-10.37,1.38-3.21,4.2-11.43,14.94-14.55,19.02-.27.36-.83,1.09-1.11,1.44-1.66,2.14-4.16,3.48-6.9,3.49-8.23.17-16.76,1.2-24.78,2.62-19.3,3.42-38.18,8.75-56.92,14.27l.8-60.23c7.11-1.27,14.21-2.61,21.29-3.94ZM496.62,251.86c-10.02-.09-19.94.74-29.74,2.07-5.85.82-11.67,1.8-17.46,2.93-3.47-21.89-5.21-43.97-6.7-66.14-1.49-18.74-1.87-37.63-6.31-56.39-1.48-6.01-4.04-12.86-8.58-17.73,4.44-1.63,8.92-3.15,13.44-4.54,7.17-2.12,14.49-3.88,21.48-4.23,2.7-.07,4.95-2.23,5.06-4.99.12-2.87-2.12-5.29-4.99-5.41-8.59-.34-16.65.92-24.56,2.46-21.75,4.55-42.74,11.93-63.39,19.76l-8.92-4.88c-4.84-2.66-10.98-.73-13.42,4.22-2.4,4.83-.42,10.68,4.4,13.08l12.84,6.36c2.47,1.33,5.46,1.53,8.19.27,10.57-5.19,21.19-10.29,31.98-14.94.36.95.91,1.89,1.67,2.8l2.3,2.65c.05.05.1.1.17.13.07.04.14,0,.24.13.09.1.18.18.29.26l.16.12c.58.68,1.13,1.4,1.72,2.46,3.69,7.04,5.14,15.45,6.68,23.69,5.43,34.06,8.16,69.15,15.65,103.06-18.2,4.04-36.14,9.29-53.85,14.89l-13.47-7.36c-5.73-3.21-13.27-.12-15.06,6.21-1.64,5.54,1.52,11.37,7.06,13.01l17.37,5.16,1.22.36c1.55.46,3.26.43,4.89-.2,26.75-10.3,53.8-19.83,81.85-25.45,9.27-1.82,18.61-3.14,27.94-3.6,2.7-.1,4.89-2.32,4.91-5.06.03-2.83-2.24-5.13-5.06-5.16ZM1892.45,251.86c-10.02-.09-19.94.74-29.74,2.07-5.85.82-11.67,1.81-17.46,2.93-3.47-21.89-5.21-43.97-6.7-66.14-1.49-18.74-1.87-37.63-6.31-56.39-1.48-6.01-4.04-12.86-8.58-17.73,4.44-1.63,8.92-3.15,13.44-4.54,7.17-2.12,14.49-3.88,21.48-4.23,2.7-.07,4.95-2.23,5.06-4.99.12-2.87-2.12-5.29-4.99-5.41-8.59-.34-16.65.92-24.56,2.46-21.75,4.55-42.74,11.93-63.39,19.76l-8.92-4.88c-4.84-2.66-10.98-.73-13.42,4.22-2.4,4.83-.42,10.68,4.4,13.08l12.84,6.36c2.47,1.33,5.46,1.53,8.19.27,10.57-5.19,21.19-10.29,31.98-14.94.36.95.91,1.89,1.67,2.8l2.3,2.65s.1.1.17.13c.07.04.14,0,.24.13.09.1.18.18.29.26l.16.12c.58.68,1.13,1.4,1.72,2.46,3.69,7.04,5.14,15.45,6.68,23.69,5.42,34.06,8.16,69.15,15.65,103.06-18.21,4.04-36.14,9.29-53.85,14.89l2.43,1.33-6.11-.16c1.23-.39,2.45-.78,3.68-1.17l-13.47-7.36c-5.73-3.21-13.27-.12-15.06,6.21-1.64,5.54,1.52,11.37,7.06,13.01l17.37,5.16,1.22.36c1.55.46,3.26.43,4.89-.2,26.75-10.3,53.8-19.83,81.85-25.45,9.27-1.82,18.61-3.14,27.94-3.6,2.7-.1,4.89-2.32,4.91-5.06.03-2.83-2.24-5.13-5.06-5.16ZM1780.8,273.95c-1.23.39-2.45.78-3.68,1.17l6.11.16-2.43-1.33ZM542.92,163.52c-1.04.37-2.09.73-3.13,1.1l5.24.16-2.11-1.26ZM706.51,247c-4.06-20.57-9.94-40.98-18.68-60.43-8.03-17.9-18.57-34.82-31.62-49.59,7.49-2.21,15.01-4.23,22.59-5.97,2.12-.45,3.52-2.52,3.12-4.67-.41-2.19-2.51-3.64-4.7-3.24-10.8,2.02-21.43,4.58-31.98,7.44-.41.11-.84.22-1.25.34-.02-.01-.03-.01-.05.01-10.32,2.82-20.55,5.92-30.78,9.11l-3.07-29.13c-.25-2.14-1.5-4.17-3.54-5.27-4.98-3.44-10.67-6.14-16.85-7.2-6.7-1.82-13.22,3.89-12.01,10.78.89,5.17,5.79,8.64,10.96,7.75,2.5-.43,5.27-.35,8.17.21.73,5.39,2.04,15.1,3.63,26.88-19.29,6.22-38.44,12.8-57.53,19.5l2.11,1.26-5.24-.16c1.04-.37,2.09-.73,3.13-1.1l-21.03-12.55c-5.51-3.38-13.07-.51-14.91,5.71-1.66,5.36,1.33,11.05,6.69,12.72l25.74,7.99,1.56.48c1.18.36,2.49.28,3.67-.33,1.12-.45,2.25-.89,3.37-1.34-.38,37.36-5.9,74.77-15.86,111.1-1.48,6.14,7.21,8.7,9.33,2.83,12.88-38.81,20.84-79.37,22.75-120.32,12.55-4.91,25.13-9.74,37.76-14.39,5.34,39.38,12.43,91.87,12.47,91.87.03.4.03.79.02,1.12-.2-.05-.39-.12-.57-.2-3.28-1.26-6.34-3.32-9.39-5.38-2.14-1.47-4.26-3.03-6.38-4.62-4.78-3.38-10.02,3.38-5.51,7.16,6.16,4.57,15.95,13.44,23.99,12.91,6.15-.5,8.27-6.89,7.77-11.83l-10.07-95.51c8.38-3,16.8-5.95,25.27-8.74h.01c.38.73.89,1.41,1.52,2.02,29.12,27.8,46.32,65.95,55.98,104.87.61,2.48,3.07,4.07,5.61,3.57,2.61-.51,4.31-3.05,3.8-5.66ZM643.99,130.88c.41-.12.84-.23,1.25-.34-.43.07-.85.18-1.25.34ZM341.49,186.55c-.96-20.96-5.17-41.56-11.32-61.36-.43-1.44-1.31-2.76-2.6-3.75-3.25-2.49-7.91-1.87-10.4,1.39-.01.05-32.41,42.37-63.31,82.75l-.64-93.39c0-4.06-3.07-7.61-7.21-8.27l-21.98-5.09c-5.59-1.32-11.2,2.54-11.96,8.23-.74,5.37,3.01,10.34,8.39,11.08l15.75,2.19,7.99,97.87c-24.37,31.84-45.44,59.39-45.44,59.43-7.48,10.73,7.48,21.72,15.51,11.59l105.97-145.21c8.2,30.11,10.69,61.87,3.68,92.25l-16.82-12.48c-4.03-2.9-8.77,2.51-5.31,6.12l21.74,21.85c3.41,3.42,9.08,1.64,10.24-2.98,6.26-20.05,8.7-41.28,7.72-62.22ZM1371.9,186.55c-.96-20.96-5.17-41.56-11.32-61.36-.44-1.44-1.31-2.76-2.6-3.75-3.25-2.49-7.91-1.87-10.4,1.39-.01.05-32.41,42.37-63.31,82.75l-.65-93.39c.01-4.06-3.06-7.61-7.2-8.27l-21.98-5.09c-5.59-1.32-11.2,2.54-11.96,8.23-.74,5.37,3.01,10.34,8.39,11.08l15.75,2.19,7.99,97.87c-24.37,31.85-45.45,59.39-45.45,59.43-7.47,10.73,7.49,21.72,15.52,11.59l105.97-145.21c8.2,30.11,10.69,61.87,3.68,92.25l-16.82-12.48c-4.03-2.9-8.77,2.51-5.31,6.12l21.73,21.85c3.42,3.42,9.09,1.64,10.25-2.98,6.26-20.05,8.7-41.28,7.72-62.22ZM1565.74,110.03c-3.49,6.99-8.54,13.28-13.57,18.89-23.15,24.86-50.52,44.75-77.94,64.42-.35,28.03-8.94,55.56-22.1,80.26-3.25,6.1-6.88,11.97-10.64,17.73-.99,1.52-3.03,1.95-4.55.96-1.45-.95-1.91-2.85-1.08-4.35,6.57-11.6,12.2-23.74,16.39-36.38,8.11-24.46,11.47-51.69,5.96-76.86-2.51-11.21-7.32-23.66-15.75-30.95-.63-.53-1.17-1.14-1.61-1.79-7.62,2.79-15.16,5.75-22.62,8.91-1.61,1.01-3.58.96-5.11.05-1.61-.89-13.03-7.91-14.84-8.93-4.43-2.66-5.87-8.42-3.2-12.85,3.16-5.49,11.25-6.08,15.22-1.19l7.29,8.72c44.46-17.13,90.69-27.55,137.06-37.43l2.18-.46.4-.07c6.28-1.27,11.41,5.69,8.51,11.32ZM1554.76,109.61c-32.16,7.63-64.53,15.67-95.96,26.09,8.07,10.42,12.07,23.57,14.07,36.28.6,4.21,1,8.43,1.21,12.64,6.51-4.88,12.97-9.84,19.35-14.89,18.15-14.5,36.43-29.59,51.68-47.02,3.61-4.23,6.95-8.47,9.65-13.1ZM1010.68,140.88c-.05.05-63.78,19.14-95.21,28.57l8.35-33.6c.17-.66.24-1.33.22-1.98,25.74-11.58,53.45-18.62,80.72-25.97,2.07-.54,3.37-2.61,2.92-4.72-.46-2.17-2.59-3.55-4.76-3.09-29.75,6.54-59.86,12.72-88.14,24.55l-11.8-6.03c-4.12-2.14-9.36.05-10.69,4.51-1.23,4,1.01,8.24,5.01,9.48l11.62,3.59-1.98,35.83c-2.93.88-5.23,1.57-6.7,2.01l-12.06-4.59c-5.21-2.08-11.23,1.79-11.47,7.41-.27,4.67,3.3,8.67,7.96,8.94l14.17.82c1,.06,2.09.19,3.08-.12l104.07-31.25c-2.58,40.36-30.48,74.67-58.03,102.7-10.35,10.37-21.34,20.17-32.64,29.61-3.18,2.82.74,7.51,4.08,5.04,40.03-31.85,83.53-70.93,96.46-122.46,1.75-7.62,2.69-15.49,2.68-23.4.06-4.01-4.03-7.07-7.86-5.85Z"/>

  </g>
</svg>